<?xml version="1.0" encoding="UTF-8"?>
<svg id="Camada_2" data-name="Camada 2" xmlns="http://www.w3.org/2000/svg" viewBox="0 0 74.3 18.8">
  <defs>
    <style>
      .cls-1 {
        fill: #000;
        stroke-width: 0px;
      }
    </style>
  </defs>
  <g id="Camada_1-2" data-name="Camada 1">
    <g>
      <path class="cls-1" d="M4.7,18.8c-.9,0-1.8-.1-2.5-.3-.7-.2-1.2-.6-1.6-1C.2,17,0,16.5,0,15.8s.1-.9.4-1.3.6-.8,1-1.1c.5-.3,1-.6,1.7-.9l1,1.3c-.6.2-1,.4-1.3.7-.3.3-.4.6-.4.9s0,.6.3.8c.2.2.5.4.8.5.3,0,.7.1,1.2.1s.8,0,1.1-.2c.3-.1.6-.3.7-.5.2-.2.3-.4.3-.7s-.1-.6-.4-.9c-.2-.2-.7-.4-1.5-.4-.7,0-1.3-.1-1.8-.2-.5,0-1-.2-1.4-.4-.4-.1-.7-.3-1-.5s-.5-.3-.7-.5v-.5l2.1-2.3,1.9.6-2.5,2.5.8-1.3c.1,0,.3.2.4.2s.3.1.5.2c.2,0,.5.1.8.2.3,0,.8,0,1.3.1.9,0,1.6.2,2.1.5.6.2,1,.6,1.2,1,.3.4.4.9.4,1.5s-.2,1.1-.5,1.7c-.3.5-.8.9-1.5,1.3-.7.3-1.5.5-2.5.5l.2.1ZM4.7,11.3c-.8,0-1.5-.2-2.1-.5-.6-.3-1.1-.8-1.4-1.3-.3-.5-.5-1.1-.5-1.8s.2-1.3.5-1.8.8-1,1.4-1.3c.6-.3,1.3-.5,2.1-.5s1.5.2,2.1.5,1.1.8,1.4,1.3c.3.5.5,1.1.5,1.8s-.2,1.3-.5,1.8-.8,1-1.4,1.3c-.6.3-1.3.5-2.1.5ZM4.7,9.3c.5,0,.9-.1,1.2-.4.3-.3.5-.6.5-1.2s-.2-.9-.5-1.1c-.3-.3-.7-.4-1.2-.4s-.9.1-1.2.4c-.3.3-.5.6-.5,1.1s.2.9.5,1.2.7.4,1.2.4ZM6.4,6.2l-.4-1.9h4.1v1.6s-3.7.3-3.7.3Z"/>
      <path class="cls-1" d="M14.8,14.4c-.9,0-1.7-.1-2.3-.4-.7-.3-1.2-.7-1.6-1.2-.4-.5-.6-1.1-.7-1.7h2.7c0,.2.2.5.3.7.2.2.4.4.6.5.3.1.6.2.9.2s.6,0,.9-.1c.2,0,.4-.2.5-.4.1-.2.2-.3.2-.5,0-.3,0-.5-.2-.6s-.4-.3-.7-.4c-.3,0-.7-.2-1.1-.3-.4-.1-.9-.2-1.3-.4-.4-.1-.8-.3-1.2-.5s-.6-.5-.9-.8c-.2-.3-.3-.7-.3-1.2s.2-1.1.5-1.6.8-.8,1.4-1.1c.6-.3,1.3-.4,2.2-.4,1.2,0,2.1.3,2.8.8s1.1,1.3,1.2,2.2h-2.5c0-.3-.3-.5-.5-.7-.3-.2-.6-.3-1.1-.3s-.8,0-1.1.3c-.2.2-.4.4-.4.6s0,.3.2.5c.2.1.4.3.7.4.3,0,.7.2,1.1.3.7.2,1.4.3,2,.5s1,.5,1.4.9.5.9.5,1.6c0,.6-.2,1.2-.5,1.7s-.8.9-1.4,1.2-1.4.4-2.2.4l-.1-.2Z"/>
      <path class="cls-1" d="M26.9,14.4c-.9,0-1.7-.1-2.3-.4-.7-.3-1.2-.7-1.6-1.2-.4-.5-.6-1.1-.7-1.7h2.7c0,.2.2.5.3.7.2.2.4.4.6.5.3.1.6.2.9.2s.6,0,.9-.1c.2,0,.4-.2.5-.4.1-.2.2-.3.2-.5,0-.3,0-.5-.2-.6s-.4-.3-.7-.4c-.3,0-.7-.2-1.1-.3-.4-.1-.9-.2-1.3-.4-.4-.1-.8-.3-1.2-.5s-.6-.5-.9-.8c-.2-.3-.3-.7-.3-1.2s.2-1.1.5-1.6.8-.8,1.4-1.1c.6-.3,1.3-.4,2.2-.4,1.2,0,2.1.3,2.8.8s1.1,1.3,1.2,2.2h-2.5c0-.3-.3-.5-.5-.7-.3-.2-.6-.3-1.1-.3s-.8,0-1.1.3c-.2.2-.4.4-.4.6s0,.3.2.5c.2.1.4.3.7.4.3,0,.7.2,1.1.3.7.2,1.4.3,2,.5s1,.5,1.4.9.5.9.5,1.6c0,.6-.2,1.2-.5,1.7s-.8.9-1.4,1.2-1.4.4-2.2.4l-.1-.2Z"/>
      <path class="cls-1" d="M36,14.2c-.7,0-1.3-.1-1.8-.3-.5-.2-.9-.6-1.2-1.1s-.4-1.2-.4-2.1v-4.2h-1.7v-2.2h1.7l.3-2.7h2.4v2.7h2.6v2.2h-2.6v4.2c0,.4,0,.8.3.9.2.2.5.3,1,.3h1.3v2.3h-1.9Z"/>
      <path class="cls-1" d="M42.2,14.4c-.8,0-1.5-.2-2.1-.5s-1-.8-1.3-1.5-.4-1.5-.4-2.4v-5.6h2.6v5.4c0,.8.2,1.4.5,1.8s.8.6,1.5.6.8-.1,1.2-.3c.4-.2.6-.5.8-.9.2-.4.3-.9.3-1.4v-5.2h2.7v9.9h-2.3l-.2-1.6c-.3.6-.7,1-1.3,1.3-.6.3-1.2.5-2,.5v-.1Z"/>
      <path class="cls-1" d="M53.5,14.4c-.9,0-1.7-.2-2.4-.7-.7-.4-1.3-1.1-1.7-1.8-.4-.8-.6-1.7-.6-2.6s.2-1.9.6-2.7,1-1.4,1.7-1.8c.7-.4,1.5-.7,2.4-.7s1.4.1,1.9.4c.5.3,1,.6,1.3,1.1V0h2.7v14.2h-2.4l-.3-1.4c-.2.3-.5.5-.7.8-.3.2-.6.4-1,.6-.4.1-.9.2-1.4.2h-.1ZM54.2,12.1c.5,0,1-.1,1.4-.4.4-.2.7-.6.9-1,.2-.4.3-.9.3-1.5s-.1-1.1-.3-1.5c-.2-.4-.5-.8-.9-1s-.9-.4-1.4-.4-1,.1-1.4.4c-.4.2-.7.6-1,1-.2.4-.3.9-.3,1.5s.1,1,.3,1.5c.2.4.5.8,1,1,.4.2.9.4,1.4.4Z"/>
      <path class="cls-1" d="M61.9,3c-.5,0-.9-.1-1.2-.4-.3-.3-.5-.6-.5-1.1s.2-.8.5-1.1c.3-.3.7-.4,1.2-.4s.9.1,1.2.4c.3.3.5.6.5,1.1s-.2.8-.5,1.1-.7.4-1.2.4ZM60.6,14.2V4.3h2.7v9.9h-2.7Z"/>
      <path class="cls-1" d="M69.1,14.4c-.9,0-1.8-.2-2.5-.7-.8-.4-1.4-1-1.8-1.8s-.7-1.7-.7-2.7.2-1.9.7-2.7c.4-.8,1-1.4,1.8-1.8.8-.4,1.6-.7,2.6-.7s1.8.2,2.6.7c.8.4,1.4,1,1.8,1.8s.7,1.7.7,2.7-.2,1.9-.7,2.7c-.4.8-1,1.4-1.8,1.8s-1.6.7-2.6.7h-.1ZM69.1,12.1c.4,0,.8-.1,1.2-.3.3-.2.6-.5.8-1,.2-.4.3-1,.3-1.6s-.1-1.2-.3-1.6c-.2-.4-.5-.7-.8-1-.3-.2-.7-.3-1.2-.3s-.8.1-1.2.3c-.4.2-.6.5-.8,1-.2.4-.3,1-.3,1.6s.1,1.2.3,1.6c.2.4.5.7.8,1,.3.2.7.3,1.2.3Z"/>
    </g>
  </g>
</svg>